<?xml version="1.0" encoding="utf-8"?>
<!-- Generator: Adobe Illustrator 19.2.1, SVG Export Plug-In . SVG Version: 6.00 Build 0)  -->
<svg version="1.1" id="图层_1" xmlns="http://www.w3.org/2000/svg" xmlns:xlink="http://www.w3.org/1999/xlink" x="0px" y="0px"
	 viewBox="0 0 595.3 841.9" style="enable-background:new 0 0 595.3 841.9;" xml:space="preserve">
<style type="text/css">
	.st0{fill:#EF135B;}
	.st1{fill:#FFFFFF;}
</style>
<g>
	<g>
		<path class="st0" d="M441,683.9H152c-66,0-120-54-120-120v-289c0-66,54-120,120-120h289c66,0,120,54,120,120v289
			C561,629.9,507,683.9,441,683.9z"/>
	</g>
	<g>
		<path class="st1" d="M197.5,417.4c-19.8,59.5-42.1,115.3-66.8,167.9l-20.2-8.9c25.9-54.2,48.6-110.1,68-166.7L197.5,417.4z
			 M191.8,332l-17.4,12.1c-15.4-26.7-36-56.3-62.3-88.6l17.8-11.3C157,277.8,177.6,306.9,191.8,332z M460.9,350.6
			c-12.1,56.7-29.1,104.4-51,143.7c4,17,8.5,32,13.8,44.9c9.7,21,18.6,31.6,25.9,32c6.9,0,10.9-25.5,12.5-76.1l17.8,8.1
			c-0.8,59.5-10.1,89.4-27.9,89.8c-13.8,0-26.7-11.3-38.9-33.6c-6.5-11.7-11.7-26.3-16.6-43.3c-22.7,33.2-49,58.7-78.9,76.5
			l-12.9-17c34-19.4,62.3-48.2,84.6-86.2c-4-15.8-7.3-32.8-10.1-51.4c-6.5-43.7-10.9-88.6-13.4-135.2h-123V417
			c-1.2,73.7-17,133.1-46.9,177.7l-16.2-14.6c27.5-38.9,41.7-93.5,43.3-163.1V282.2h141.6c-0.8-18.6-0.8-37.2-0.8-55.8h20.6
			c0,18.6,0.4,37.2,1.2,55.8h46.5c-6.5-15.8-13.8-29.9-21.9-42.9l18.2-3.2c7.7,13.8,15,29.1,21.9,46.1h20.2v20.6h-84.2
			c1.6,39.3,5.3,78.1,10.1,117c2,15.4,4.5,29.9,6.9,43.7c16.2-34.4,29.1-74.9,38.4-121L460.9,350.6z M348.4,344.6v19h-82.2v-19
			H348.4z M346.8,401.6V517h-76.9V401.6H346.8z M330.2,419.4h-43.7v79.7h43.7V419.4z"/>
	</g>
</g>
</svg>
