<?xml version="1.0" encoding="utf-8"?>
<!-- Generator: Adobe Illustrator 19.2.1, SVG Export Plug-In . SVG Version: 6.00 Build 0)  -->
<svg version="1.1" id="图层_1" xmlns="http://www.w3.org/2000/svg" xmlns:xlink="http://www.w3.org/1999/xlink" x="0px" y="0px"
	 viewBox="0 0 595.3 841.9" style="enable-background:new 0 0 595.3 841.9;" xml:space="preserve">
<style type="text/css">
	.st0{fill:#AAAAAA;}
	.st1{fill:#E18131;}
</style>
<g>
	<g>
		<path class="st0" d="M514,697.9H79c-33.6,0-61-27.4-61-61v-435c0-33.6,27.4-61,61-61h435c33.6,0,61,27.4,61,61v435
			C575,670.5,547.6,697.9,514,697.9z M79,168.9c-18.2,0-33,14.8-33,33v435c0,18.2,14.8,33,33,33h435c18.2,0,33-14.8,33-33v-435
			c0-18.2-14.8-33-33-33H79z"/>
	</g>
	<g>
		<rect x="156" y="374.9" class="st1" width="289" height="71"/>
	</g>
	<g>
		
			<rect x="156" y="374.9" transform="matrix(4.490192e-11 -1 1 4.490192e-11 -109.89 710.89)" class="st1" width="289" height="71"/>
	</g>
</g>
</svg>
