<?xml version="1.0" encoding="utf-8"?>
<!-- Generator: Adobe Illustrator 19.2.1, SVG Export Plug-In . SVG Version: 6.00 Build 0)  -->
<svg version="1.1" id="图层_1" xmlns="http://www.w3.org/2000/svg" xmlns:xlink="http://www.w3.org/1999/xlink" x="0px" y="0px"
	 viewBox="0 0 595.3 841.9" style="enable-background:new 0 0 595.3 841.9;" xml:space="preserve">
<style type="text/css">
	.st0{fill:#747474;}
</style>
<g>
	<g>
		<path class="st0" d="M392.4,587.9H204.4l-0.8-0.1c-2-0.3-49.1-7.1-97.4-43.8c-28.3-21.5-51.2-48.9-68-81.4
			C17.4,422.4,6,374.3,4.3,319.7l-0.4-12.4h587.2l0.2,11.8c0,2.1,0.7,51.3-23.2,109c-14,34-33.7,64-58.5,89
			c-30.9,31.3-69.7,54.9-115.4,70.1L392.4,587.9z M206.1,563.9h182.4c41.3-14,76.3-35.4,104.1-63.6c22.5-22.8,40.5-50.2,53.3-81.3
			c15.3-37.1,19.7-70.6,20.9-87.7h-538c2.8,45.9,13.1,86.3,30.6,120.3c15.1,29.3,35.7,53.9,61.2,73.3
			C160.9,555.4,200.4,562.9,206.1,563.9z"/>
	</g>
	<g>
		<path class="st0" d="M391.9,622.1h-194c-7.2,0-13-5.9-13-13.2v-31.6c0-7.3,5.8-13.2,13-13.2h194c7.2,0,13,5.9,13,13.2v31.6
			C404.9,616.2,399,622.1,391.9,622.1z M208.9,598.1h172v-10h-172V598.1z"/>
	</g>
</g>
</svg>
