<?xml version="1.0" encoding="utf-8"?>
<!-- Generator: Adobe Illustrator 19.2.1, SVG Export Plug-In . SVG Version: 6.00 Build 0)  -->
<svg version="1.1" id="图层_1" xmlns="http://www.w3.org/2000/svg" xmlns:xlink="http://www.w3.org/1999/xlink" x="0px" y="0px"
	 viewBox="0 0 595.3 841.9" style="enable-background:new 0 0 595.3 841.9;" xml:space="preserve">
<style type="text/css">
	.st0{fill:#D97F34;}
</style>
<g>
	<g>
		<path class="st0" d="M16.1,326.2h563c0,0,3.6,192.4-188.9,256.6H205C205,582.7,23.2,557.8,16.1,326.2z"/>
		<path class="st0" d="M392.2,594.7H204.2l-0.8-0.1c-2-0.3-49.1-7.1-97.4-43.8c-28.3-21.5-51.2-48.9-68-81.4
			C17.2,429.3,5.8,381.2,4.1,326.5l-0.4-12.4h587.2l0.2,11.8c0,2.1,0.7,51.3-23.2,109c-14,34-33.7,64-58.5,89
			c-30.9,31.3-69.7,54.9-115.4,70.1L392.2,594.7z M205.9,570.7h182.4c41.1-14,76-35.2,103.7-63.2c22.5-22.7,40.5-49.9,53.4-80.9
			c15.5-37.3,20-71.3,21.2-88.5h-538c2.8,45.6,12.9,85.8,30.3,119.6c15,29.2,35.4,53.9,60.6,73.3C159.9,562,200.1,569.7,205.9,570.7
			z"/>
	</g>
	<g>
		<path class="st0" d="M391.7,630h-194c-7.2,0-13-5.9-13-13.2v-31.6c0-7.3,5.8-13.2,13-13.2h194c7.2,0,13,5.9,13,13.2v31.6
			C404.7,624.1,398.8,630,391.7,630z M208.7,606h172v-10h-172V606z"/>
	</g>
</g>
</svg>
