<?xml version="1.0" encoding="utf-8"?>
<!-- Generator: Adobe Illustrator 19.2.1, SVG Export Plug-In . SVG Version: 6.00 Build 0)  -->
<svg version="1.1" id="图层_1" xmlns="http://www.w3.org/2000/svg" xmlns:xlink="http://www.w3.org/1999/xlink" x="0px" y="0px"
	 viewBox="0 0 595.3 841.9" style="enable-background:new 0 0 595.3 841.9;" xml:space="preserve">
<style type="text/css">
	.st0{fill:#747474;}
	.st1{fill:#FFFFFF;}
	.st2{fill:none;stroke:#747474;stroke-width:24;stroke-miterlimit:10;}
</style>
<g>
	<g>
		<g>
			<g>
				<g>
					<circle class="st0" cx="158.7" cy="337.4" r="8.3"/>
				</g>
			</g>
			<g>
				<g>
					
						<ellipse transform="matrix(0.6135 -0.7897 0.7897 0.6135 -208.781 322.3196)" class="st0" cx="224.9" cy="374.4" rx="8.3" ry="8.3"/>
				</g>
			</g>
			<g>
				<g>
					<circle class="st0" cx="215.4" cy="308" r="5.4"/>
				</g>
			</g>
			<g>
				<g>
					<circle class="st0" cx="107.5" cy="407" r="5"/>
				</g>
			</g>
			<g>
				<g>
					<circle class="st0" cx="175.9" cy="432.8" r="8.9"/>
				</g>
			</g>
			<g>
				<g>
					<circle class="st0" cx="299.2" cy="335.4" r="4.5"/>
				</g>
			</g>
			<g>
				<g>
					<circle class="st0" cx="497.2" cy="422.1" r="4.5"/>
				</g>
			</g>
			<g>
				<g>
					<circle class="st0" cx="433.8" cy="436.2" r="3.4"/>
				</g>
			</g>
			<g>
				<g>
					<circle class="st0" cx="281.3" cy="271.9" r="4"/>
				</g>
			</g>
			<g>
				<g>
					<circle class="st0" cx="324.6" cy="401.3" r="6.9"/>
				</g>
			</g>
			<g>
				<g>
					<circle class="st0" cx="361.7" cy="325.1" r="4"/>
				</g>
			</g>
			<g>
				<g>
					<circle class="st0" cx="403.8" cy="378.3" r="4"/>
				</g>
			</g>
		</g>
	</g>
	<g>
		<g>
			<g>
				<path class="st1" d="M16.4,485.2h563c0,0,3.6,192.4-188.9,256.6H205.3C205.3,741.8,23.5,716.9,16.4,485.2z"/>
				<path class="st0" d="M392.5,753.8H204.5l-0.8-0.1c-2-0.3-49.1-7.1-97.4-43.8c-28.3-21.5-51.2-48.9-68-81.4
					C17.5,588.3,6.1,540.2,4.4,485.6L4,473.2h587.2l0.2,11.8c0,2.1,0.7,51.3-23.2,109c-14,34-33.7,64-58.5,89
					c-30.9,31.3-69.7,54.9-115.4,70.1L392.5,753.8z M206.2,729.8h182.4c41.1-14,76-35.2,103.7-63.2c22.5-22.7,40.5-49.9,53.4-80.9
					c15.5-37.3,20-71.3,21.2-88.5H29c2.8,45.6,12.9,85.8,30.3,119.6c15,29.2,35.4,53.9,60.6,73.3
					C160.1,721.1,200.4,728.8,206.2,729.8z"/>
			</g>
			<g>
				<path class="st0" d="M392,789.4H198c-7.2,0-13-5.9-13-13.2v-33.1c0-7.3,5.8-13.2,13-13.2h194c7.2,0,13,5.9,13,13.2v33.1
					C405,783.5,399.1,789.4,392,789.4z M209,765.4h172v-11.6H209V765.4z"/>
			</g>
		</g>
		<g>
			<path class="st2" d="M23.6,417.2"/>
		</g>
		<g>
			<path class="st2" d="M15.8,449.5"/>
		</g>
	</g>
	<g>
		<path class="st0" d="M3.8,449.6c0-0.4-0.1-10.7,1.6-21.9c2.8-18.4,8.8-29.4,18.6-33.5c18.6-7.9,23.1-14.6,22.9-33.8l0-1l0.2-1
			c0.4-2.2,0.6-4.4,0.8-6.6c1.4-14.1,2.9-28.7,32.4-54.6c11-9.7,23.7-14.9,38.3-21c18.7-7.8,39.9-16.6,65.1-37.9
			c5.5-4.9,49.5-43.4,81.1-48.1c25-3.8,53.2-8,101,36.6l0.2,0.2c1.5,1.5,3,3,4.3,4.5c7.6,8.1,14.2,15.1,40.5,16.6l0.9,0.1
			c1.8,0.2,44.6,6,87.8,33c40.4,25.3,88.6,74.4,88.6,164.9h-24c0-63.5-25.8-112-76.7-144.1c-36.8-23.2-74.4-29.4-78.5-30
			c-35.5-2.1-46.9-14.3-56.1-24.1c-1.2-1.3-2.4-2.5-3.5-3.7c-39.2-36.6-58.5-33.7-80.9-30.3c-21,3.2-56.8,31.7-68.8,42.4l-0.2,0.2
			c-28.1,23.8-52.2,33.8-71.5,41.8c-13.2,5.5-23.6,9.8-31.6,16.9c-22.4,19.7-23.2,27.8-24.4,39c-0.2,2.2-0.5,4.5-0.8,7
			c0.1,28-10.4,43.4-37.1,54.9c-3.2,3.3-6.1,19.3-6,33.3L3.8,449.6z"/>
	</g>
</g>
</svg>
