<?xml version="1.0" encoding="utf-8"?>
<!-- Generator: Adobe Illustrator 19.2.1, SVG Export Plug-In . SVG Version: 6.00 Build 0)  -->
<svg version="1.1" id="图层_1" xmlns="http://www.w3.org/2000/svg" xmlns:xlink="http://www.w3.org/1999/xlink" x="0px" y="0px"
	 viewBox="0 0 595.3 841.9" style="enable-background:new 0 0 595.3 841.9;" xml:space="preserve">
<style type="text/css">
	.st0{fill:#E18131;}
	.st1{fill:none;stroke:#E18131;stroke-width:24;stroke-miterlimit:10;}
	.st2{display:none;}
	.st3{display:inline;}
	.st4{fill:#E18131;stroke:#E18131;stroke-width:24;stroke-miterlimit:10;}
	.st5{display:inline;fill:none;stroke:#E18131;stroke-width:24;stroke-miterlimit:10;}
</style>
<g>
	<g>
		<g>
			<g>
				<g>
					<circle class="st0" cx="162.7" cy="233" r="8.1"/>
				</g>
			</g>
			<g>
				<g>
					
						<ellipse transform="matrix(0.6135 -0.7897 0.7897 0.6135 -124.6603 283.6409)" class="st0" cx="227.4" cy="269.2" rx="8.1" ry="8.1"/>
				</g>
			</g>
			<g>
				<g>
					<circle class="st0" cx="218.2" cy="204.2" r="5.2"/>
				</g>
			</g>
			<g>
				<g>
					<circle class="st0" cx="112.7" cy="301" r="4.9"/>
				</g>
			</g>
			<g>
				<g>
					<circle class="st0" cx="179.5" cy="326.2" r="8.7"/>
				</g>
			</g>
			<g>
				<g>
					<circle class="st0" cx="300.1" cy="231" r="4.4"/>
				</g>
			</g>
			<g>
				<g>
					<circle class="st0" cx="493.7" cy="315.8" r="4.4"/>
				</g>
			</g>
			<g>
				<g>
					<circle class="st0" cx="431.7" cy="329.6" r="3.3"/>
				</g>
			</g>
			<g>
				<g>
					<circle class="st0" cx="282.6" cy="168.9" r="3.9"/>
				</g>
			</g>
			<g>
				<g>
					<circle class="st0" cx="325" cy="295.5" r="6.8"/>
				</g>
			</g>
			<g>
				<g>
					<circle class="st0" cx="361.2" cy="220.9" r="3.9"/>
				</g>
			</g>
			<g>
				<g>
					<circle class="st0" cx="402.3" cy="273" r="3.9"/>
				</g>
			</g>
		</g>
	</g>
	<g>
		<g>
			<g>
				<path class="st0" d="M23.6,377.5h550.5c0,0,3.5,188.2-184.7,250.9H208.3C208.3,628.4,30.6,604,23.6,377.5z"/>
				<path class="st0" d="M391.4,640.4h-184l-0.8-0.1c-1.9-0.3-48.1-6.9-95.3-42.8c-27.7-21.1-50.1-47.9-66.6-79.7
					c-20.3-39.4-31.5-86.4-33.1-139.9l-0.4-12.4h574.7l0.2,11.8c0,2,0.6,50.2-22.7,106.7c-13.7,33.3-33,62.6-57.2,87.2
					c-30.2,30.6-68.3,53.7-113,68.6L391.4,640.4z M209.2,616.4h178.3c40.1-13.6,74.2-34.4,101.3-61.7c22-22.2,39.5-48.7,52.2-79
					c15.1-36.2,19.5-69.3,20.7-86.2H36.2c2.7,44.7,12.8,84.1,29.9,117.2c14.8,28.6,34.9,52.7,59.8,71.6
					C165.1,608.1,203.5,615.4,209.2,616.4z"/>
			</g>
			<g>
				<path class="st0" d="M390.8,685H201.1c-7.2,0-13-5.9-13-13.2v-32.4c0-7.3,5.8-13.2,13-13.2h189.7c7.2,0,13,5.9,13,13.2v32.4
					C403.8,679,397.9,685,390.8,685z M212.1,661h167.6v-10.8H212.1V661z"/>
			</g>
		</g>
		<g>
			<path class="st1" d="M30.6,311"/>
		</g>
		<g>
			<path class="st1" d="M23,342.6"/>
		</g>
	</g>
	<g>
		<path class="st0" d="M11,342.7c0-0.4-0.1-10.5,1.5-21.5c2.7-18.1,8.7-28.9,18.3-33c18.1-7.7,22.4-14.1,22.2-32.8l0-1l0.2-1
			c0.3-2.2,0.6-4.3,0.8-6.5c1.4-13.9,2.9-28.2,31.8-53.6c10.8-9.5,23.2-14.6,37.5-20.6c18.3-7.6,39-16.2,63.6-37
			c5.4-4.8,48.5-42.5,79.4-47.1c24.5-3.7,52.2-7.9,99,35.9l0.2,0.2c1.5,1.5,2.9,3,4.2,4.4c7.4,7.9,13.8,14.7,39.4,16.1l0.9,0.1
			c1.8,0.2,43.7,5.9,86,32.3c39.6,24.7,86.8,72.8,86.8,161.4h-24c0-62-25.2-109.3-74.8-140.6c-35.9-22.7-72.6-28.7-76.7-29.3
			c-34.8-2.1-46-14-55-23.7c-1.2-1.3-2.3-2.5-3.4-3.6c-38.2-35.7-57.1-32.8-78.9-29.5c-20.5,3.1-55.4,30.9-67.1,41.4l-0.2,0.2
			c-27.5,23.3-51.1,33.1-70,40.9c-12.9,5.3-23,9.6-30.9,16.5c-21.8,19.2-22.6,27.1-23.7,38c-0.2,2.2-0.4,4.4-0.8,6.8
			c0.1,27.4-10.2,42.6-36.3,53.9c-3.1,3.3-5.9,18.8-5.7,32.4L11,342.7z M40.9,309.9L40.9,309.9z"/>
	</g>
</g>
<g class="st2">
	<g class="st3">
		<g>
			<g>
				<circle class="st0" cx="-652.2" cy="263.7" r="8.1"/>
			</g>
			<g>
				
					<ellipse transform="matrix(0.6135 -0.7897 0.7897 0.6135 -463.9468 -348.0825)" class="st0" cx="-587.6" cy="299.9" rx="8.1" ry="8.1"/>
			</g>
			<g>
				<circle class="st0" cx="-596.8" cy="234.9" r="5.2"/>
			</g>
			<g>
				<circle class="st0" cx="-702.3" cy="331.8" r="4.9"/>
			</g>
			<g>
				<circle class="st0" cx="-635.5" cy="356.9" r="8.7"/>
			</g>
			<g>
				<circle class="st0" cx="-514.9" cy="261.7" r="4.4"/>
			</g>
			<g>
				<circle class="st0" cx="-321.3" cy="346.5" r="4.4"/>
			</g>
			<g>
				<circle class="st0" cx="-383.3" cy="360.3" r="3.3"/>
			</g>
			<g>
				<circle class="st0" cx="-532.4" cy="199.7" r="3.9"/>
			</g>
			<g>
				<circle class="st0" cx="-490" cy="326.2" r="6.8"/>
			</g>
			<g>
				<circle class="st0" cx="-453.7" cy="251.7" r="3.9"/>
			</g>
			<g>
				<circle class="st0" cx="-412.6" cy="303.7" r="3.9"/>
			</g>
		</g>
	</g>
	<g class="st3">
		<g>
			<path class="st4" d="M-791.4,408.2h550.5c0,0,3.5,188.2-184.7,250.9h-181.2C-606.7,659.1-784.4,634.7-791.4,408.2z"/>
			<path class="st1" d="M-424.2,703.7h-189.7c-0.5,0-1-0.5-1-1.2v-32.4c0-0.7,0.4-1.2,1-1.2h189.7c0.5,0,1,0.5,1,1.2v32.4
				C-423.2,703.2-423.6,703.7-424.2,703.7z"/>
		</g>
		<path class="st1" d="M-784.4,341.7"/>
		<path class="st1" d="M-791.9,373.3"/>
	</g>
	<path class="st5" d="M-791.9,373.3c0,0-0.4-37.8,12.6-43.3c21.8-9.3,29.8-19.7,29.5-44c2.5-16.1-1.4-26.6,28.6-52.9
		c22.2-19.5,56.1-19.4,101-57.5c0,0,44.8-40,73.3-44.3c23.4-3.5,46.6-6.8,89,32.8c10.1,9.9,16.3,22,51.4,24
		c0,0,162.3,21,162.3,181.9"/>
</g>
</svg>
