<?xml version="1.0" encoding="utf-8"?>
<!-- Generator: Adobe Illustrator 19.2.1, SVG Export Plug-In . SVG Version: 6.00 Build 0)  -->
<svg version="1.1" id="图层_1" xmlns="http://www.w3.org/2000/svg" xmlns:xlink="http://www.w3.org/1999/xlink" x="0px" y="0px"
	 viewBox="0 0 595.3 841.9" style="enable-background:new 0 0 595.3 841.9;" xml:space="preserve">
<style type="text/css">
	.st0{fill:#747474;}
	.st1{display:none;}
	.st2{display:inline;}
	.st3{fill:#D97F34;}
	.st4{fill:#D97F34;stroke:#D97F34;stroke-width:24;stroke-miterlimit:10;}
	.st5{display:inline;fill:none;stroke:#D97F34;stroke-width:24;stroke-miterlimit:10;}
</style>
<g>
	<g>
		<g>
			<path class="st0" d="M396,616.5h-182l-0.8-0.1c-1.9-0.3-47.6-6.9-94.4-42.4c-27.5-20.9-49.6-47.4-65.9-78.9
				c-20.1-39-31.2-85.5-32.8-138.5l-0.4-12.4h568.9l0.2,11.8c0,2,0.6,49.7-22.5,105.6c-13.6,33-32.7,62-56.6,86.3
				c-29.9,30.3-67.6,53.2-111.8,67.9L396,616.5z M215.7,592.5h176.4c39.7-13.5,73.3-34,100.1-61c21.8-21.9,39.1-48.2,51.6-78.1
				c14.9-35.8,19.2-68.4,20.5-85.1H44.6c2.7,43.9,12.5,82.5,29.2,115.1c14.5,28.2,34.2,52,58.5,70.8
				C171.2,584,210,591.5,215.7,592.5z"/>
		</g>
		<g>
			<path class="st0" d="M395.4,645H207.7c-7.2,0-13-5.8-13-13v-25.6c0-7.2,5.8-13,13-13h187.7c7.2,0,13,5.8,13,13v25.6
				C408.3,639.2,402.5,645,395.4,645z M218.7,621h165.6v-3.6H218.7V621z"/>
		</g>
	</g>
	<g>
		<g>
			<g>
				<g>
					<circle class="st0" cx="108.9" cy="291.1" r="7.9"/>
				</g>
			</g>
			<g>
				<g>
					<circle class="st0" cx="302.3" cy="273.6" r="6.1"/>
				</g>
			</g>
			<g>
				<g>
					<circle class="st0" cx="429.4" cy="297.4" r="3.6"/>
				</g>
			</g>
			<g>
				<g>
					<circle class="st0" cx="498.8" cy="315" r="3.9"/>
				</g>
			</g>
			<g>
				<g>
					<circle class="st0" cx="395.7" cy="325.6" r="4.4"/>
				</g>
			</g>
			<g>
				<g>
					<circle class="st0" cx="162.9" cy="296.1" r="4.9"/>
				</g>
			</g>
			<g>
				<g>
					<circle class="st0" cx="218" cy="304.8" r="7.4"/>
				</g>
			</g>
			<g>
				<g>
					<circle class="st0" cx="290" cy="318.3" r="7.2"/>
				</g>
			</g>
		</g>
		<g>
			<path class="st0" d="M43.5,322.8l-24-0.5c0-0.3,0.2-7.3,1.3-15.1c1.9-13.4,5.3-21.3,11.2-25.6c5.4-3.9,11.3-5.6,17.1-7.3
				c9.5-2.7,18.4-5.3,26.4-17.8c0.9-1.4,1.9-3.2,2.9-5.1c5.9-11,15.7-29.3,42.4-31.3c1.3-0.1,2.9-0.3,4.7-0.6c6.8-1.1,16-2.5,29.3,1
				c2.5,0.7,5.2,1.5,8,2.4c17.9,5.6,32.6,9.2,44.9-0.9c18.9-15.5,48.9-32.8,85-26.9c2.4,0.4,5,0.6,7.6,0.9
				c13.6,1.3,30.5,2.8,57.7,27.2c1.8,1.6,4,3.7,6.3,5.8c6.3,5.9,14.9,13.9,20.5,17.5c1.5,1,2.9,2,4.1,3c4.7,3.6,6.9,5.3,17,0.3
				l0.4-0.2c15.9-7.2,42.2-9.1,72.3-5c30.4,4.2,59,13.7,78.6,26.3c26.1,16.8,31.5,35.5,31.5,48.2h-24c0-12.3-11.2-22-20.5-28
				c-35.8-23-103.3-30.8-127.8-19.8c-23.4,11.5-35.5,2.2-42-2.8c-0.9-0.7-1.8-1.4-2.5-1.8c-7.5-4.8-16.6-13.3-24-20.2
				c-2.2-2.1-4.3-4-5.9-5.5c-21.3-19.1-32.3-20.1-44-21.2c-3-0.3-6-0.6-9.3-1.1c-27.2-4.5-50.9,9.3-65.9,21.7
				c-23.3,19.2-50.8,10.5-67.3,5.3c-2.6-0.8-5-1.6-7-2.1c-8.3-2.2-13.7-1.4-19.3-0.5c-2.1,0.3-4.3,0.7-6.6,0.9
				c-12.7,1-17.2,7.7-23.1,18.7c-1.3,2.4-2.5,4.6-3.8,6.8c-12.9,20.1-29.2,24.8-40,27.9c-3.6,1-6.8,2-8.9,3.1
				C45.2,303.9,43.6,314.2,43.5,322.8z M47.1,300L47.1,300z"/>
		</g>
	</g>
</g>
<g class="st1">
	<g class="st2">
		<g>
			<circle class="st3" cx="-852.8" cy="-150.8" r="8.1"/>
		</g>
		<g>
			<circle class="st3" cx="-652.9" cy="-168.8" r="6.3"/>
		</g>
		<g>
			<circle class="st3" cx="-521.5" cy="-144.2" r="3.7"/>
		</g>
		<g>
			<circle class="st3" cx="-449.8" cy="-126.1" r="4"/>
		</g>
		<g>
			<circle class="st3" cx="-556.3" cy="-115.1" r="4.5"/>
		</g>
		<g>
			<circle class="st3" cx="-797" cy="-145.6" r="5.1"/>
		</g>
		<g>
			<circle class="st3" cx="-740" cy="-136.6" r="7.6"/>
		</g>
		<g>
			<circle class="st3" cx="-665.6" cy="-122.6" r="7.5"/>
		</g>
	</g>
	<g class="st2">
		<path class="st4" d="M-932.3-82.5h563c0,0,3.6,192.4-188.9,256.6h-185.3C-743.4,174.1-925.1,149.1-932.3-82.5z"/>
		<path class="st4" d="M-556.7,203.6h-194c-0.5,0-1-0.4-1-1v-26.5c0-0.6,0.5-1,1-1h194c0.5,0,1,0.4,1,1v26.5
			C-555.7,203.1-556.2,203.6-556.7,203.6z"/>
	</g>
	<path class="st5" d="M-932.8-118.3c0,0,0.6-27,7.8-32.3c11.4-8.3,32.1-4.1,48.2-29.3c6.6-10.4,12.1-30.1,37.3-32
		c7.7-0.6,16.3-3.9,30.9,0c15.9,4.2,43.6,17.3,65.7-0.9c15.8-13,44-30.7,78-25.1c16.4,2.7,30.7-1.4,61.3,26
		c7.2,6.5,20.3,19.5,29.3,25.3c7.2,4.6,12,9.8,34,4c44.5-11.7,135.2-5.5,171,60.6"/>
</g>
</svg>
