<?xml version="1.0" encoding="utf-8"?>
<!-- Generator: Adobe Illustrator 19.2.1, SVG Export Plug-In . SVG Version: 6.00 Build 0)  -->
<svg version="1.1" id="图层_1" xmlns="http://www.w3.org/2000/svg" xmlns:xlink="http://www.w3.org/1999/xlink" x="0px" y="0px"
	 viewBox="0 0 595.3 841.9" style="enable-background:new 0 0 595.3 841.9;" xml:space="preserve">
<style type="text/css">
	.st0{fill:#333333;}
</style>
<g>
	<path class="st0" d="M65.9,402.8c0.7,56.9,18.8,107.5,55.8,150.9c8.4,9.8,18.3,18.2,27.5,27.4c6.3,6.4,12.7,12.8,18.8,19.3
		c26.6,28.2,53,56.5,79.6,84.7c15.7,16.7,31.5,33.2,47.2,49.9c1.6,1.7,2.5,1.6,4.1,0c14.8-15.6,29.7-31.2,44.6-46.8
		c32-33.6,63.9-67.2,95.9-100.8c8.9-9.3,17.8-18.6,26.8-27.7c2.4-2.4,5.4-4.3,8.1-6.5c0.9-0.7,1.8-1.4,2.6-2.3
		c25.7-31.3,42.3-66.8,49.5-106.7c2.5-14,3.9-28.1,3.7-42.3c-0.3-34.9-7.8-68.3-22.9-99.8c-0.5-1.1-0.3-2.5-0.7-3.7
		c-0.3-0.9-0.9-1.8-1.6-2.6c-10.4-11.4-10.5-30.6-0.1-41.6c14.4-15.3,39.4-10.5,47.3,9c2.9,7.1,5.9,14.2,9,21.3
		c10.9,24.8,18.2,50.5,21.8,77.4c2,15,3.2,30,2.7,45c-1.9,65.9-23.3,124.8-64.7,176.3c-13.6,17-29.1,32.3-44.1,48
		C433.3,677,389.6,722.7,346,768.4c-5.2,5.5-10.5,10.8-15.6,16.4c-3,3.3-5.9,6.8-8.4,10.6c-10.5,15.7-32.7,17.1-45.9,2.9
		c-7.6-8.1-15.1-16.3-22.8-24.3c-55.2-57.8-110.8-115.3-165.4-173.6c-35.1-37.5-59.3-81.4-71.3-131.7c-3.6-15.1-6.4-30.4-7-45.9
		c-0.5-13.2-1.2-26.5-0.4-39.6c2.4-39.6,12.3-77.2,30.5-112.5c34.8-67.3,87.8-114.3,158.6-141c20.5-7.7,41.7-12.5,63.4-15.3
		c16.9-2.2,33.9-2.6,50.9-1.7c50.1,2.8,96.5,17.6,139,44.4c4.8,3,9.7,5.6,13,10.3c10.4,15.1,7.5,40.3-15.1,46.8
		c-10.4,3-19.6,0.4-27.6-6.9c-1.7-1.6-3.7-3.1-5.7-4.3c-24.8-14.8-51.5-24.5-79.9-29.3c-16.5-2.8-33.2-3.9-49.9-2.9
		C223.4,174.6,170,199.5,127,246c-29.9,32.4-48.8,70.5-57,114C67.4,374.1,66,388.3,65.9,402.8z"/>
	<path class="st0" d="M297.2,286.3c62-0.4,117,50.2,116.1,118.1c-0.8,64.1-53.2,115.7-118.1,114.7c-64.2-0.9-115.1-53.9-114.6-117.4
		C181.1,337.9,233.5,285.7,297.2,286.3z M296.6,344.1c-32.3,0.4-58,25.6-58,58.1c0,32.2,25.4,57.9,57.7,58
		c32.4,0.1,58.1-25.4,58.2-57.9C354.6,369.8,329,344.6,296.6,344.1z"/>
</g>
</svg>
