<?xml version="1.0" encoding="utf-8"?>
<!-- Generator: Adobe Illustrator 19.2.1, SVG Export Plug-In . SVG Version: 6.00 Build 0)  -->
<svg version="1.1" id="图层_1" xmlns="http://www.w3.org/2000/svg" xmlns:xlink="http://www.w3.org/1999/xlink" x="0px" y="0px"
	 viewBox="0 0 595.3 841.9" style="enable-background:new 0 0 595.3 841.9;" xml:space="preserve">
<style type="text/css">
	.st0{fill:#58AE47;}
	.st1{fill:#FFFFFF;}
</style>
<g>
	<g>
		<g>
			<g>
				<g>
					<g>
						<circle class="st0" cx="297.6" cy="420.9" r="296.6"/>
					</g>
				</g>
			</g>
		</g>
	</g>
	<g>
		<g>
			<g>
				<path class="st1" d="M410.9,597.4h-27.5c-36.9,0-66.9-30-66.9-66.9v-81.4c0-6,4.4-10.9,10.1-11.8c1.6-0.7,3.3-1.2,5.1-1.2h79.2
					c36.9,0,66.9,30,66.9,66.9v27.5C477.8,567.4,447.8,597.4,410.9,597.4z M340.5,460.1v70.4c0,23.7,19.3,42.9,42.9,42.9h27.5
					c23.7,0,42.9-19.3,42.9-42.9V503c0-23.7-19.3-42.9-42.9-42.9H340.5z"/>
			</g>
		</g>
		<g>
			<g>
				<path class="st1" d="M211.9,597.4h-27.5c-36.9,0-66.9-30-66.9-66.9V503c0-36.9,30-66.9,66.9-66.9h79.2c1.8,0,3.6,0.4,5.1,1.2
					c5.7,0.9,10.1,5.9,10.1,11.8v81.4C278.8,567.4,248.8,597.4,211.9,597.4z M184.4,460.1c-23.7,0-42.9,19.3-42.9,42.9v27.5
					c0,23.7,19.3,42.9,42.9,42.9h27.5c23.7,0,42.9-19.3,42.9-42.9v-70.4H184.4z"/>
			</g>
		</g>
		<g>
			<g>
				<path class="st1" d="M263.6,397.8h-79.2c-36.9,0-66.9-30-66.9-66.9v-27.5c0-36.9,30-66.9,66.9-66.9h27.5
					c36.9,0,66.9,30,66.9,66.9v81.4c0,6-4.4,10.9-10.1,11.8C267.2,397.4,265.5,397.8,263.6,397.8z M184.4,260.5
					c-23.7,0-42.9,19.3-42.9,42.9v27.5c0,23.7,19.3,42.9,42.9,42.9h70.4v-70.4c0-23.7-19.3-42.9-42.9-42.9H184.4z"/>
			</g>
		</g>
		<g>
			<g>
				<path class="st1" d="M410.9,397.8h-79.2c-1.8,0-3.6-0.4-5.1-1.2c-5.7-0.9-10.1-5.9-10.1-11.8v-81.4c0-36.9,30-66.9,66.9-66.9
					h27.5c36.9,0,66.9,30,66.9,66.9v27.5C477.8,367.8,447.8,397.8,410.9,397.8z M340.5,373.8h70.4c23.7,0,42.9-19.3,42.9-42.9v-27.5
					c0-23.7-19.3-42.9-42.9-42.9h-27.5c-23.7,0-42.9,19.3-42.9,42.9V373.8z"/>
			</g>
		</g>
	</g>
</g>
</svg>
