<?xml version="1.0" encoding="utf-8"?>
<!-- Generator: Adobe Illustrator 19.2.1, SVG Export Plug-In . SVG Version: 6.00 Build 0)  -->
<svg version="1.1" id="图层_1" xmlns="http://www.w3.org/2000/svg" xmlns:xlink="http://www.w3.org/1999/xlink" x="0px" y="0px"
	 viewBox="0 0 595.3 841.9" style="enable-background:new 0 0 595.3 841.9;" xml:space="preserve">
<style type="text/css">
	.st0{fill:#47ADCE;}
	.st1{fill:#FFFFFF;}
</style>
<g>
	<g>
		<g>
			<g>
				<g>
					<g>
						<circle class="st0" cx="298.6" cy="418.8" r="296.7"/>
					</g>
				</g>
			</g>
		</g>
	</g>
	<g>
		<g>
			<path class="st1" d="M371.4,587h-16.3c-6.6,0-12-5.4-12-12s5.4-12,12-12H371c3.5-0.9,16.3-8.9,36-28.8
				c17.6-17.8,27.4-31.8,28.8-36.1V343.2c0-24.5-19.9-44.4-44.4-44.4H205.9c-24.5,0-44.4,19.9-44.4,44.4v175.5
				c0,24.5,19.9,44.4,44.4,44.4h79c6.6,0,12,5.4,12,12s-5.4,12-12,12h-79c-37.7,0-68.4-30.7-68.4-68.4V343.2
				c0-37.7,30.7-68.4,68.4-68.4h185.4c37.7,0,68.4,30.7,68.4,68.4v155.6c0,4.3-1.4,11.1-12,25.3c-6,8.1-14.4,17.6-23.4,26.8
				c-9.2,9.3-18.7,17.8-26.7,23.9C386.3,583.3,378.3,587,371.4,587z"/>
		</g>
		<g>
			<rect x="160.9" y="362.8" class="st1" width="279" height="24"/>
		</g>
		<g>
			<path class="st1" d="M200.9,329.6c-6.6,0-12-5.4-12-12v-50.8c0-6.6,5.4-12,12-12s12,5.4,12,12v50.8
				C212.9,324.3,207.5,329.6,200.9,329.6z"/>
		</g>
		<g>
			<path class="st1" d="M394.7,329.6c-6.6,0-12-5.4-12-12v-50.8c0-6.6,5.4-12,12-12s12,5.4,12,12v50.8
				C406.7,324.3,401.3,329.6,394.7,329.6z"/>
		</g>
		<g>
			<path class="st1" d="M353.9,585.4c-6.6,0-12-5.4-12-12v-40.9c0-34,27.7-61.7,61.7-61.7h36c6.6,0,12,5.4,12,12s-5.4,12-12,12h-36
				c-20.8,0-37.7,16.9-37.7,37.7v40.9C365.9,580,360.6,585.4,353.9,585.4z"/>
		</g>
	</g>
	<g>
		<path class="st1" d="M301,426.7v76.1h-12.5v-61c-4.6,4.2-10.3,7.2-17.4,9.3v-12.4c3.4-0.9,7-2.3,10.9-4.5c3.8-2.3,7-4.8,9.6-7.5
			H301z"/>
	</g>
</g>
</svg>
