<?xml version="1.0" encoding="utf-8"?>
<!-- Generator: Adobe Illustrator 19.2.1, SVG Export Plug-In . SVG Version: 6.00 Build 0)  -->
<svg version="1.1" id="图层_1" xmlns="http://www.w3.org/2000/svg" xmlns:xlink="http://www.w3.org/1999/xlink" x="0px" y="0px"
	 viewBox="0 0 595.3 841.9" style="enable-background:new 0 0 595.3 841.9;" xml:space="preserve">
<style type="text/css">
	.st0{fill:#ffffff;}
</style>
<g>
	<g>
	</g>
	<g>
		<g>
			<path class="st0" d="M45.8,718.1c-9-72,1-125.7,29.6-159.9c28.3-33.7,46.8-67.2,56.7-102.3c7.5-26.7,10-54.1,7.7-86.4
				C131.8,253.2,75.1,128.2,74.5,127l10.9-5c0.6,1.3,58.2,128.2,66.4,246.7c3.5,50.3-1,118.2-67.3,197.2
				c-26.4,31.5-35.4,82.2-26.9,150.7L45.8,718.1z"/>
		</g>
	</g>
	<g>
		<g>
			<path class="st0" d="M284.8,573.7c-29,0-54.6-1.8-76-4.2c-70.3-7.9-111.3-23.9-113-24.6l4.4-11.2c0.4,0.2,41.6,16.2,110.5,23.9
				c63.5,7.1,164.1,8.3,283.1-26.1l3.3,11.5C416.1,566.6,343.4,573.7,284.8,573.7z"/>
		</g>
	</g>
	<g>
		<g>
			<path class="st0" d="M283.7,654c-32.6,0-64.7-2.4-95.9-7.1c-83.4-12.6-130.7-37.5-132.7-38.5l5.6-10.6
				c16.2,8.6,64.2,27.5,129.5,37.3c47.9,7.2,98.1,8.7,149.1,4.6c63.8-5.2,129.1-19.4,194.1-42.3l4,11.3
				c-66.1,23.2-132.6,37.7-197.5,42.9C321,653.2,302.3,654,283.7,654z M57.9,603.1l2.8-5.3c0,0,0,0,0,0L57.9,603.1z"/>
		</g>
	</g>
	<g>
		<g>
			<polygon class="st0" points="123.7,369.6 69.6,338.4 69.6,360.6 0,360.6 0,379.1 69.6,379.1 69.6,400.8 			"/>
		</g>
	</g>
	<g>
		<g>
			<polygon class="st0" points="526.6,360.9 526.6,338.7 472.6,369.9 526.6,401.1 526.6,379.4 596.2,379.4 596.2,360.9 			"/>
		</g>
	</g>
	<g>
		<g>
			<path class="st0" d="M291.8,462.2c-6.9,0-14.6-5-23.3-15.2c-6.1-7.1-10.5-14.3-10.7-14.6l10.2-6.3c7.2,11.8,18.8,24.5,23.9,24.1
				c3.6-0.3,13.8-10,22.7-23.4l10,6.7c-4.3,6.5-19.3,27.6-31.7,28.7C292.6,462.2,292.2,462.2,291.8,462.2z M263,429.3l5.1-3.1
				c0,0,0,0,0,0L263,429.3z"/>
		</g>
	</g>
	<g>
		<g>
			<path class="st0" d="M553.5,718.1l-11.9-1.5c8.6-68.5-0.5-119.2-26.9-150.7c-66.3-79-70.7-146.9-67.3-197.2
				c8.2-118.5,65.8-245.5,66.4-246.7l10.9,5c-0.6,1.2-57.3,126.3-65.3,242.6c-2.2,32.3,0.2,59.7,7.7,86.4
				c9.9,35.1,28.5,68.6,56.7,102.3C552.6,592.4,562.5,646.2,553.5,718.1z"/>
		</g>
	</g>
</g>
</svg>
