<?xml version="1.0" encoding="utf-8"?>
<!-- Generator: Adobe Illustrator 19.2.1, SVG Export Plug-In . SVG Version: 6.00 Build 0)  -->
<svg version="1.1" id="图层_1" xmlns="http://www.w3.org/2000/svg" xmlns:xlink="http://www.w3.org/1999/xlink" x="0px" y="0px"
	 viewBox="0 0 595.3 841.9" style="enable-background:new 0 0 595.3 841.9;" xml:space="preserve">
<style type="text/css">
	.st0{fill:#747474;}
</style>
<g>
	<g>
		<path class="st0" d="M380.3,464.5c-55.3,0-109.8,0-167.6,0c0,15.8,0.3,30.9-0.1,45.9c-0.8,29.6-10.8,39.4-40,39.7
			c-17.5,0.2-35.1,0.4-52.6-0.1c-23.9-0.7-35.5-11.4-35.7-34.8c-0.5-62.1-0.5-124.2,0-186.3c0.2-22.2,12.2-33.5,34.2-34.1
			c19.7-0.5,39.5-0.5,59.2,0c21.8,0.6,32.1,10.2,34.6,31.5c0.3,2.9,0.3,5.8,0.4,8.8c1.4,46.8,1.4,46.8,47.6,46.8
			c34.3,0,68.7-0.7,103,0.3c15.6,0.4,21.5-5.2,19.4-20.2c-0.1-0.7,0-1.5,0-2.2c0.7-64.3,1.5-65.1,65-65.1c61.2,0,63.4,2.2,63.5,64.6
			c0.1,49.7,0.2,99.4-0.1,149.1c-0.2,31.9-10.1,41.5-42.3,41.8c-15.3,0.1-30.7,0.1-46,0c-29.4-0.3-39.7-10.5-40.1-39.4
			c-0.2-13.1-0.2-26.3-0.4-39.4C382.3,470,381.6,468.6,380.3,464.5z M193.9,423.1c0-30-0.2-59.9,0.1-89.9
			c0.1-13.7-5.3-20.3-19.5-19.8c-17.5,0.5-35.1,0.6-52.6,0c-14.4-0.5-19.7,6.5-19.7,19.8c0,59.2-0.1,118.4-0.2,177.6
			c0,14,5.4,21.8,21,21c16.8-0.9,33.6-0.8,50.4,0c15.5,0.7,20.8-6.4,20.6-20.9C193.7,481.5,194,452.3,193.9,423.1z M492.8,422.8
			c0-29.9-0.1-59.8,0-89.6c0.1-13.3-11.6-19.4-19.4-19.8c-18.2-0.3-34-1.5-51.9,0.7c-6.5,0.8-19.5,4.9-19.7,21.4
			c-1.2,61.2-0.5,117.3-0.5,178.5c0,12.9,6.3,18.2,19.1,17.7c16-0.6,32.1-1.1,48.1,0c18,1.3,25.1-5.5,24.6-23.7
			C492.1,479.7,492.8,451.2,492.8,422.8z M377.8,442c3-3,3.6-9.4,3.6-13.2c0-11.5,0-17,0-27.7c-56.3,0-111.3,0-168.5,0
			c0,11.9-1.2,22.2,0.5,32c0.8,4.6,7.4,11.5,11.4,11.5c47.9,0.7,87.1,0.6,136.3,0.5C364.9,445.2,375,444.7,377.8,442z"/>
		<path class="st0" d="M70.3,509.8c-51.2,6-59.6-3.1-60-41.4C10,437,10,405.6,10.4,374.2c0.4-32.3,19.3-47,50.3-39.1
			c4.1,1,3.9,16.4-0.2,17.8c-4.6,1.6-16.4-1.1-20.2,1.2c-6.2,3.8-9.9,9.8-10.1,15.3c-1.4,35-0.6,70.1-0.8,105.1
			c-0.1,13.4,6.4,17.5,19.1,17.4c7.9-0.1,16.7-2.1,21.2,1.6C70.9,495.7,72.1,508,70.3,509.8z"/>
	</g>
	<path class="st0" d="M527.2,509.8c51.2,6,59.6-3.1,60-41.4c0.3-31.4,0.3-62.8-0.1-94.2c-0.4-32.3-19.3-47-50.3-39.1
		c-4.1,1-3.9,16.4,0.2,17.8c4.6,1.6,16.4-1.1,20.2,1.2c6.2,3.8,9.9,9.8,10.1,15.3c1.4,35,0.6,70.1,0.8,105.1
		c0.1,13.4-6.4,17.5-19.1,17.4c-7.9-0.1-16.7-2.1-21.2,1.6C526.6,495.7,525.4,508,527.2,509.8z"/>
</g>
</svg>
