<?xml version="1.0" encoding="utf-8"?>
<!-- Generator: Adobe Illustrator 19.2.1, SVG Export Plug-In . SVG Version: 6.00 Build 0)  -->
<svg version="1.1" id="图层_1" xmlns="http://www.w3.org/2000/svg" xmlns:xlink="http://www.w3.org/1999/xlink" x="0px" y="0px"
	 viewBox="0 0 595.3 841.9" style="enable-background:new 0 0 595.3 841.9;" xml:space="preserve">
<style type="text/css">
	.st0{fill:#ffffff;}
</style>
<g>
	<path class="st0" d="M214.6,496.4c93.1-50.2,132.8-47.3,203,11.6c41.4-37.2,90.1-59.6,147.5-53.2c16,1.8,16,26.2,1,25.4
		c-51.2-2.6-94.6,13.5-129.3,51c-5.7,6.2-8.5,15.2-11.7,23.7c-0.8,2.1-0.9,3.7-3.1,4c-2.6,0.5-3.2-1.5-5-3.4
		c-86.7-87.8-109.5-87.8-197.3-18.5c-13.8,10.9-23.9,11.9-26.3-9c-9.5-82.2-20.1-164.4-27.4-246.8c-2.4-27.6-2.5-60.1,29.8-73.7
		c30.2-12.8,56.6,1.1,82.4,18.1c11.2,7.3,29.9,12.9,40.9,8.5c14.4-5.8,34.6-22.3,34.5-34c-0.3-31.7-39.6-70.7-65.7-66.5
		c-43.9,7.2-86.9,19.9-129.8,31.7c-5.7,1.6-10.7,10.6-13.4,17.2c-51,129.1-94.7,260.1-107.1,399.9c-3.7,41.8,8.7,65.8,47.5,84.2
		c125.8,59.9,249,64.7,373.1-4.3c13.6-7.6,38.4-9.4,50.8-2c29.9,17.9,56.3,42.2,82.4,65.7c4.3,3.8-17.3,20.8-23.3,15.1
		c-10.2-9.6-29.3-24.5-40.1-33.1c-28.6-22.9-41.7-31.1-81.1-11.2c-142.1,72-281.3,52.3-413.1-30.4c-12.5-7.8-23.4-31.3-21.8-46
		c8.6-77.8,16-156.5,34.4-232.2c18.2-74.9,48.7-146.8,74.7-219.7c3.4-9.6,10.4-22.9,18.3-25c51.3-13.7,102.7-29.3,155.2-35.4
		c41.9-4.8,95.1,65.1,89,107.7c-4.8,33.6-77.1,62.2-108.4,42.5c-21.5-13.6-44.7-43.1-67.8-23c-15,13-16.6,48-14.8,72.5
		C196.7,369.6,206.5,430.7,214.6,496.4z"/>
</g>
</svg>
