<?xml version="1.0" encoding="utf-8"?>
<!-- Generator: Adobe Illustrator 19.2.1, SVG Export Plug-In . SVG Version: 6.00 Build 0)  -->
<svg version="1.1" id="图层_1" xmlns="http://www.w3.org/2000/svg" xmlns:xlink="http://www.w3.org/1999/xlink" x="0px" y="0px"
	 viewBox="0 0 595.3 841.9" style="enable-background:new 0 0 595.3 841.9;" xml:space="preserve">
<style type="text/css">
	.st0{fill:#7B4BFF;}
	.st1{fill:#FFFFFF;}
</style>
<g>
	<g>
		<g>
			<g>
				<circle class="st0" cx="298.6" cy="418.8" r="296.7"/>
			</g>
		</g>
	</g>
	<g>
		<g>
			<g>
				<path class="st1" d="M153.7,459.4c-5.6,0-10.7-4-11.8-9.7c-1.9-10.1-2.9-20.5-2.9-30.9c0-89.5,72.8-162.3,162.3-162.3
					c35.8,0,69.8,11.5,98.3,33.1c27.5,21,48,50.7,57.6,83.8c1.9,6.4-1.8,13-8.2,14.9c-6.4,1.8-13-1.8-14.9-8.2
					c-8.2-28.1-25.6-53.5-49.1-71.4c-24.2-18.5-53.2-28.2-83.7-28.2c-76.3,0-138.3,62-138.3,138.3c0,8.9,0.8,17.7,2.5,26.3
					c1.3,6.5-3,12.8-9.5,14.1C155.2,459.3,154.4,459.4,153.7,459.4z"/>
			</g>
			<g>
				<path class="st1" d="M301.2,581.1c-58.6,0-112.8-31.7-141.6-82.9c-3.2-5.8-1.2-13.1,4.6-16.3c5.8-3.3,13.1-1.2,16.3,4.6
					c24.5,43.6,70.7,70.6,120.6,70.6c74,0,134.6-57.8,138.1-131.6c0.3-6.6,5.9-11.7,12.6-11.4c6.6,0.3,11.7,5.9,11.4,12.6
					c-2,41.7-19.7,80.6-50,109.5C383.1,565.1,343.2,581.1,301.2,581.1z"/>
			</g>
			<g>
				<path class="st1" d="M170.8,498.5c-0.9,0-1.8,0-2.8,0c-48.3-0.4-74-10.1-78.6-29.8c-2.8-12,3.4-24.4,18.3-37
					c5.1-4.3,12.6-3.6,16.9,1.5c4.3,5.1,3.6,12.6-1.5,16.9c-9.3,7.8-10.6,12.5-10.4,13.2c0,0.1,6.5,10.9,55.4,11.3
					c39.3,0.3,90-6.3,142.9-18.6c52.9-12.3,101.4-28.7,136.5-46.3c43.7-21.9,44.7-34.4,44.7-34.5c-0.1-0.6-2.8-3.7-12.2-6.5
					c-6.4-1.9-10-8.5-8.1-14.9s8.5-10,14.9-8.1c16.5,4.8,26.2,12.9,28.8,24.1c4.6,19.7-14.2,39.8-57.4,61.4
					c-36.7,18.4-87.1,35.5-141.8,48.2C263.1,491.7,211.5,498.5,170.8,498.5z"/>
			</g>
		</g>
		<g>
			<path class="st1" d="M288.3,404c-1.2,0-2.3-0.2-3.6-0.5c-5.2-1.4-8.8-5.8-9.5-11.4c-0.3-2.3-0.7-4.8-1.2-7.5
				c-1-5.9-2.1-12.7-2.1-18.7c0-3.9-1.7-14.3-3.1-21.7c-2.8-3.8-6.8-7.5-8.6-7.8c-10.8,0-17.1-2.6-23.2-5c-1.2-0.5-2.3-0.9-3.6-1.4
				c-12.7-4.8-16.8-22.7-18-30.2c-1-6.5,3.4-12.7,10-13.7c6.5-1,12.7,3.4,13.7,10c0.7,4.5,2.5,9.9,3.9,11.9c1.1,0.4,2.1,0.8,3,1.2
				c5.1,2,8.1,3.3,14.3,3.3c16.2,0,27.9,17.3,30,20.8c0.8,1.2,1.3,2.6,1.6,4c0.7,3.3,3.9,19.9,4,28.4c2.6-3.3,4.2-5.1,6-6.4
				c1.3-1,2.9-2,4.6-3s5.1-3.1,6.5-4.5c0.1-2.8,0-8.8-0.1-12.9c-0.4-15.2-0.3-21.9,1.5-26.4c0.9-2.4,3.4-8.6,25.1-20.9
				c0.8-0.5,1.8-0.9,2.7-1.1l27.4-7.7c6.4-1.8,13,1.9,14.8,8.3s-1.9,13-8.3,14.8l-25.9,7.3c-5.3,3.1-10.8,6.8-13.3,9
				c-0.2,3.8,0,11.4,0.1,16.3c0.2,8.8,0.3,14.3-0.2,18c-1.5,10.7-11.7,16.8-17.7,20.5c-0.7,0.4-1.6,1-2.2,1.4
				c-1,1.2-3.4,4.2-5.1,6.4C302.7,395.9,296.4,404,288.3,404z M316.3,378.1C316.3,378.2,316.3,378.2,316.3,378.1
				C316.3,378.2,316.3,378.2,316.3,378.1z M313.4,351L313.4,351L313.4,351z M260.3,336.3L260.3,336.3L260.3,336.3z M260.1,336.3
				L260.1,336.3L260.1,336.3z M335.7,322.9L335.7,322.9L335.7,322.9z M241.8,307.4L241.8,307.4L241.8,307.4z"/>
		</g>
		<g>
			<path class="st1" d="M352.9,573.4c-0.9,0-1.9-0.1-2.8-0.3c-6.4-1.6-10.4-8-8.8-14.5l5.6-23.2l-4.8-9.9l-5,9.4
				c-1.9,3.5-5.3,5.8-9.2,6.3l-21,2.4L282.2,564c-5.1,4.2-12.7,3.5-16.9-1.6c-4.2-5.1-3.5-12.7,1.6-16.9l27.4-22.7
				c1.8-1.5,4-2.4,6.3-2.7l18.3-2.1l13.1-24.7c2.1-4,6.3-6.4,10.8-6.4c4.5,0.1,8.6,2.7,10.6,6.7l17,35c1.2,2.5,1.5,5.4,0.9,8.1
				l-6.6,27.4C363.2,569.7,358.3,573.4,352.9,573.4z"/>
		</g>
	</g>
</g>
</svg>
