<?xml version="1.0" encoding="utf-8"?>
<!-- Generator: Adobe Illustrator 19.2.1, SVG Export Plug-In . SVG Version: 6.00 Build 0)  -->
<svg version="1.1" id="图层_1" xmlns="http://www.w3.org/2000/svg" xmlns:xlink="http://www.w3.org/1999/xlink" x="0px" y="0px"
	 viewBox="0 0 595.3 841.9" style="enable-background:new 0 0 595.3 841.9;" xml:space="preserve">
<style type="text/css">
	.st0{fill:#747474;}
	.st1{fill:#FFFFFF;}
</style>
<g>
	<g>
		<path class="st0" d="M346.8,395.2c-13.1,5.7-32.9,12.2-56,12.2c-12.4,0-25.8-1.9-39.6-6.7c-19.3-6.8-31.6-21.4-31.6-41.8
			c0-17.4,9.2-39.6,30.7-39.6c3.7,0,7.7,0.6,12,2.1c25.9,8.4,18.2,48.7,83.3,62.4c2.6,0.5,4.5,2.7,4.8,5.3
			C350.7,391.6,349.3,394.1,346.8,395.2z M217.2,95.9c7.5,0,14.7,1.3,21.6,3.2c14.8,4,27.9,11.9,38.1,22.7
			c10.8,11.4,18.3,25.8,21.2,41.9c0.9,4.7,1.5,9.6,1.5,14.6c0,13.9-3.8,26.7-9.8,38.2c0.1,0,0.1,0.1,0.2,0.1
			c13.5,5.7,29.1-0.5,34.9-14.1c5.1-12,0.7-25.6-9.8-32.5c0.2-0.1,0.4-0.2,0.6-0.2c15.5-6.6,22.7-24.6,16.1-40.1
			c-4.4-10.2-13.7-16.7-24-18.1c0.2-0.4,0.6-0.9,0.8-1.3c8.8-17.1,2-38-15-46.8c-14.4-7.4-31.5-3.6-41.8,8
			c-2.1-17.3-16.8-30.7-34.6-30.5c-19.2,0.2-34.6,15.8-34.5,35c0,5.3,1.3,15,3.5,26.2C195.6,98.2,206.1,95.9,217.2,95.9z M494.6,326
			c-0.3-3.8-2.3-7.2-5.5-9.2c-3.1-2.1-7.1-2.6-10.7-1.4c-124.7,40.9-177.2-32.4-198.3-84.5c-2.5-6.1-4.5-11.9-6.2-17.2
			c6.4-10.3,10.3-22.4,10.3-35.4c0-37.1-30-67.1-67.1-67.1c-25.3,0-47,14.1-58.4,34.8l-19,5.1l-34.2,9.3c-2.8,0.8-5,3-5.8,5.8
			c-0.7,2.8,0.1,5.9,2.2,7.9l33.2,32.4c-19.4,10.9-38.5,25-45.2,31.8c-13.5,13.7-13.3,35.7,0.4,49.1c7.7,7.5,25.9,17.9,41.8,1.2
			c14.2-14.9,37.1-51.4,47.4-76.6c2.1-5.2,3.8-9.9,4.7-13.8c1.2-5.2,1.2-9.1-0.6-10.8c-3-3-3.1-7.8-0.1-10.8c3-3,7.8-3,10.8-0.1
			c5.2,5.1,6,13.3,4.3,23c-6.1,35.4-47.9,90.5-55.8,98.5c-7.9,8-17.7,13.9-28.1,15.4c-1.2,7.5-1.9,15.1-1.9,22.9
			c0,90.8,85.5,164.4,191.1,164.4c105.5,0,191.1-73.6,191.1-164.4C495,333,494.9,329.5,494.6,326z M192.4,151.5
			c0-5.9,4.8-10.7,10.6-10.7c5.9,0,10.7,4.8,10.7,10.7c0,5.9-4.8,10.6-10.7,10.6C197.1,162.2,192.4,157.4,192.4,151.5z M353,409.2
			c-14,6.1-36.2,13.5-62.2,13.5c-15.3,0-30.4-2.5-44.6-7.6c-26.2-9.2-41.9-30.2-41.9-56.3c0-26.6,16.1-54.9,46-54.9
			c5.4,0,11,0.9,16.8,2.8c14.9,4.8,22.3,16.2,28.8,26.1c9.1,14.1,18.6,28.6,53,35.8c9.1,1.9,15.9,9.4,16.9,18.7
			C366.6,396.7,361.5,405.5,353,409.2z"/>
	</g>
	<g>
		<g>
			<g>
				<path class="st0" d="M29.8,440.4h514.1c0,0,3.3,175.7-172.5,234.3H202.2C202.2,674.7,36.3,651.9,29.8,440.4z"/>
			</g>
			<g>
				<path class="st0" d="M373.3,685.9H201.5l-0.7-0.1c-1.8-0.3-44.9-6.4-89-40c-25.9-19.7-46.8-44.7-62.2-74.4
					c-19-36.8-29.4-80.7-30.9-130.6l-0.4-11.6h536.7l0.2,11c0,1.9,0.6,46.9-21.2,99.6c-12.8,31.1-30.8,58.5-53.4,81.4
					c-28.2,28.6-63.8,50.1-105.5,64.1L373.3,685.9z M203.2,663.5h166.5c37.4-12.7,69.3-32.1,94.6-57.6
					c20.5-20.7,36.9-45.5,48.7-73.8c14.1-33.8,18.2-64.7,19.3-80.5H41.5c2.6,41.7,12,78.5,27.9,109.5c13.8,26.7,32.6,49.2,55.8,66.9
					C161.9,655.9,197.8,662.7,203.2,663.5z"/>
			</g>
		</g>
		<g>
			<g>
				<path class="st0" d="M386.7,707.6H181.6c-6.7,0-3.1-5.5-3.1-12.3l5-30.3c0-6.8,5.4-12.3,12.1-12.3h177.1
					c6.7,0,12.1,5.5,12.1,12.3l5,30.3C389.8,702.1,393.4,707.6,386.7,707.6z M205.9,685.2h156.5v-10.1H205.9V685.2z"/>
			</g>
		</g>
	</g>
	<g>
		<g>
			<path class="st1" d="M400.6,478.6c-0.8,0-1.6,0-2.4-0.1c-15.8-0.8-27.4-9.4-38.7-17.8c-3.6-2.6-7.2-5.4-11.1-7.9
				c-44-27.1-68.3-12.1-87.7,0l-0.4,0.2c-61.3,33.9-99.4,8.9-111.9,0.7c-0.5-0.3-1-0.7-1.4-0.9l-0.5-0.4c-28-21.4-56.9-27.8-86-19.1
				c-22.1,6.6-42.4,13.9-42.6,14l-0.7-18.2c0.7-0.6,12.4-3.2,38-11c23.7-7.2,60.4-9.4,100.8,21.4c0.4,0.3,0.8,0.5,1.3,0.8
				c11.6,7.6,42.5,27.9,95.2-1.2c20.8-12.9,52.1-32.2,104.5,0.1l0.2,0.1c4.2,2.8,8.2,5.7,11.9,8.5c10.2,7.6,19,14.1,30,14.7
				c12.6,0.6,28.5-6.8,48.6-22.7l0.1-0.1c0.6-0.4,14.5-10.9,35.1-16.2c27.7-7.1,45.9-7.4,72.6,5.6l-0.3,19.6
				c-20.5-12.8-44.8-15.6-67.7-9.9c-17.1,4.3-29,12.9-29.9,13.5C435,470.3,416.9,478.6,400.6,478.6z"/>
		</g>
	</g>
	<g>
		<path class="st0" d="M34.7,424.6l-9.8-6.9c14.5-20.6,1.5-39.7,0.2-41.4c-17.8-20.3-7.8-44.3,0-54.2l9.4,7.4l-4.7-3.7l4.7,3.7
			c0,0.1-4.3,5.6-6.3,13.3c-2.5,9.6-0.5,18.3,6.1,25.7l0.3,0.3C41.7,378.2,50.9,401.7,34.7,424.6z"/>
	</g>
	<g>
		<path class="st0" d="M64.2,409.7l-9.8-6.9c14.5-20.6,1.5-39.7,0.2-41.4c-17.8-20.3-7.8-44.3,0-54.2l9.4,7.4
			c0,0.1-4.3,5.6-6.3,13.3c-2.5,9.6-0.5,18.3,6.1,25.7l0.3,0.3C71.1,363.2,80.3,386.8,64.2,409.7z"/>
	</g>
	<g>
		<path class="st0" d="M560.4,434.9l-9.8-6.9c14.5-20.6,1.7-39.4,0.2-41.4c-17.8-20.3-7.8-44.3,0-54.2l9.4,7.4
			c0,0.1-4.3,5.6-6.3,13.3c-2.5,9.6-0.5,18.3,6.1,25.7l0.3,0.3C567.3,388.4,576.5,412,560.4,434.9z"/>
	</g>
	<g>
		<path class="st0" d="M526.2,415.9l-9.8-6.9c14.5-20.6,1.7-39.4,0.2-41.4c-17.8-20.3-7.8-44.3,0-54.2l9.4,7.4l-4.7-3.7l4.7,3.7
			c0,0.1-4.3,5.6-6.3,13.3c-2.5,9.6-0.5,18.3,6.1,25.7l0.3,0.3C533.1,369.4,542.3,393,526.2,415.9z"/>
	</g>
</g>
</svg>
