<?xml version="1.0" encoding="utf-8"?>
<!-- Generator: Adobe Illustrator 19.2.1, SVG Export Plug-In . SVG Version: 6.00 Build 0)  -->
<svg version="1.1" id="图层_1" xmlns="http://www.w3.org/2000/svg" xmlns:xlink="http://www.w3.org/1999/xlink" x="0px" y="0px"
	 viewBox="0 0 595.3 841.9" style="enable-background:new 0 0 595.3 841.9;" xml:space="preserve">
<style type="text/css">
	.st0{fill:#FFFFFF;}
</style>
<g>
	<g>
		<path class="st0" d="M539.4,738.5H101.3c-12.1,0-24.6-5.6-34.4-15.5c-9.7-9.8-15.3-22.3-15.3-34.4V136.3
			c0-12.3,5.8-24.7,15.9-34.1c9.6-9,21.9-14.1,33.8-14.1h242.3l242.1,283.1v317.4c0,11.7-4.5,23.8-12.5,33.2
			C564.3,732.4,552,738.5,539.4,738.5z M101.3,128.1c-4.1,0-9.7,5.7-9.7,8.2v552.2c0,3.3,6.3,9.8,9.7,9.9h438.2
			c1.9-0.2,6.3-5.3,6.3-9.9V385.9L325.1,128.1H101.3z"/>
	</g>
	<g>
		<path class="st0" d="M566.8,401.2H353c-24.9,0-38.6-28.5-38.6-48.2V103.3l2.9-4.8c3.6-5.8,9.8-9.7,16.6-10.3
			c7-0.6,13.9,2.2,18.9,7.9c54.4,61.3,200,230.3,223.1,265.6l0,0c7.9,12,3.9,25.7-3.1,33.2L566.8,401.2z M356.9,361.2h168.8
			c-36.6-46.4-117.4-140.9-171.4-202.8v194.6C354.4,355.4,355.6,359,356.9,361.2z M322.8,122.6C322.8,122.6,322.8,122.6,322.8,122.6
			C322.8,122.6,322.8,122.6,322.8,122.6z"/>
	</g>
	<g>
		<path class="st0" d="M284.7,350.1H168.5c-11,0-20-9-20-20s9-20,20-20h116.3c11,0,20,9,20,20S295.8,350.1,284.7,350.1z"/>
	</g>
	<g>
		<path class="st0" d="M455.5,466.2h-289c-11,0-20-9-20-20s9-20,20-20h289c11,0,20,9,20,20S466.6,466.2,455.5,466.2z"/>
	</g>
	<g>
		<path class="st0" d="M468.8,582.6H168.5c-11,0-20-9-20-20s9-20,20-20h300.3c11,0,20,9,20,20S479.9,582.6,468.8,582.6z"/>
	</g>
</g>
</svg>
