<?xml version="1.0" encoding="utf-8"?>
<!-- Generator: Adobe Illustrator 19.2.1, SVG Export Plug-In . SVG Version: 6.00 Build 0)  -->
<svg version="1.1" id="图层_1" xmlns="http://www.w3.org/2000/svg" xmlns:xlink="http://www.w3.org/1999/xlink" x="0px" y="0px"
	 viewBox="0 0 595.3 841.9" style="enable-background:new 0 0 595.3 841.9;" xml:space="preserve">
<style type="text/css">
	.st0{fill:#91A4AF;}
	.st1{fill:#FFFFFF;}
</style>
<g>
	<g>
		<g>
			<g>
				<circle class="st0" cx="297.6" cy="420.9" r="296.6"/>
			</g>
		</g>
	</g>
	<g>
		<path class="st1" d="M460.2,566.9c-6.6,0-12-5.4-12-12c0-12.4-12.3-37.4-30.7-62.1c-18.8-25.3-40-45.6-54.1-51.8
			c-3.8-1.6-6.4-5.1-7-9.2c-0.6-4.1,0.9-8.2,4-10.9c20.7-18.1,32.6-44.2,32.6-71.6c0-52.5-42.7-95.2-95.2-95.2
			c-52.5,0-95.2,42.7-95.2,95.2c0,27.4,11.9,53.5,32.6,71.6c3.1,2.7,4.6,6.8,4,10.9c-0.6,4.1-3.3,7.5-7,9.2
			c-14.1,6.2-35.3,26.5-54.1,51.8c-18.4,24.7-30.7,49.7-30.7,62.1c0,6.6-5.4,12-12,12s-12-5.4-12-12c0-25.9,24.8-62.1,35.4-76.4
			c16.3-22,33.8-39.9,49.2-50.9c-18.8-21.6-29.3-49.3-29.3-78.2c0-65.7,53.5-119.2,119.2-119.2c65.7,0,119.2,53.5,119.2,119.2
			c0,28.9-10.5,56.6-29.3,78.2c15.4,11,32.9,29,49.2,50.9c10.6,14.3,35.4,50.5,35.4,76.4C472.2,561.5,466.8,566.9,460.2,566.9z"/>
	</g>
</g>
</svg>
