<?xml version="1.0" encoding="utf-8"?>
<!-- Generator: Adobe Illustrator 19.2.1, SVG Export Plug-In . SVG Version: 6.00 Build 0)  -->
<svg version="1.1" id="图层_1" xmlns="http://www.w3.org/2000/svg" xmlns:xlink="http://www.w3.org/1999/xlink" x="0px" y="0px"
	 viewBox="0 0 595.3 841.9" style="enable-background:new 0 0 595.3 841.9;" xml:space="preserve">
<style type="text/css">
	.st0{fill:#58AE47;}
	.st1{fill:#FFFFFF;}
</style>
<g>
	<g>
		<g>
			<g>
				<g>
					<g>
						
							<ellipse transform="matrix(0.7043 -0.7099 0.7099 0.7043 -210.8233 335.8017)" class="st0" cx="297.6" cy="420.9" rx="296.6" ry="296.6"/>
					</g>
				</g>
			</g>
		</g>
	</g>
	<g>
		<g>
			<g>
				<path class="st1" d="M502.7,464.9l-19.3,19.5c-26,26.2-68.5,26.4-94.7,0.4l-57.8-57.3c-4.2-4.2-4.7-10.8-1.3-15.5
					c0.6-1.6,1.5-3.2,2.8-4.5l55.8-56.2c26-26.2,68.5-26.4,94.7-0.4l19.5,19.3C528.5,396.2,528.7,438.6,502.7,464.9z M355.6,418.1
					l50,49.6c16.8,16.7,44.1,16.6,60.7-0.2l19.3-19.5c16.7-16.8,16.6-44.1-0.2-60.7l-19.5-19.3c-16.8-16.7-44.1-16.6-60.7,0.2
					L355.6,418.1z"/>
			</g>
		</g>
		<g>
			<g>
				<path class="st1" d="M362.5,606.1l-19.3,19.5c-26,26.2-68.5,26.4-94.7,0.4L229,606.7c-26.2-26-26.4-68.5-0.4-94.7l55.8-56.2
					c1.3-1.3,2.8-2.3,4.4-2.8c4.7-3.4,11.3-3,15.5,1.2l57.8,57.3C388.4,537.4,388.5,579.9,362.5,606.1z M245.7,528.9
					c-16.7,16.8-16.6,44.1,0.2,60.7l19.5,19.3c16.8,16.7,44.1,16.6,60.7-0.2l19.3-19.5c16.7-16.8,16.6-44.1-0.2-60.7l-50-49.6
					L245.7,528.9z"/>
			</g>
		</g>
		<g>
			<g>
				<path class="st1" d="M257.3,428.8L201.5,485c-26,26.2-68.5,26.4-94.7,0.4l-19.5-19.4c-26.2-26-26.4-68.5-0.4-94.7l19.3-19.5
					c26-26.2,68.5-26.4,94.7-0.4l57.8,57.3c4.2,4.2,4.7,10.8,1.3,15.5C259.5,426,258.6,427.5,257.3,428.8z M104,388.3
					c-16.7,16.8-16.6,44.1,0.2,60.7l19.5,19.4c16.8,16.7,44.1,16.6,60.7-0.2l49.6-50l-50-49.6c-16.8-16.7-44-16.6-60.7,0.2
					L104,388.3z"/>
			</g>
		</g>
		<g>
			<g>
				<path class="st1" d="M361,324.3l-55.8,56.2c-1.3,1.3-2.8,2.3-4.4,2.8c-4.7,3.4-11.3,3-15.5-1.2l-57.8-57.3
					c-26.2-26-26.4-68.5-0.4-94.7l19.3-19.5c26-26.2,68.5-26.4,94.7-0.4l19.5,19.4C386.8,255.6,387,298.1,361,324.3z M294.3,357.4
					l49.6-50c16.7-16.8,16.6-44.1-0.2-60.7l-19.5-19.4c-16.8-16.7-44.1-16.6-60.7,0.2L244.1,247c-16.7,16.8-16.6,44.1,0.2,60.7
					L294.3,357.4z"/>
			</g>
		</g>
	</g>
</g>
</svg>
