<?xml version="1.0" encoding="utf-8"?>
<!-- Generator: Adobe Illustrator 19.2.1, SVG Export Plug-In . SVG Version: 6.00 Build 0)  -->
<svg version="1.1" id="图层_1" xmlns="http://www.w3.org/2000/svg" xmlns:xlink="http://www.w3.org/1999/xlink" x="0px" y="0px"
	 viewBox="0 0 595.3 841.9" style="enable-background:new 0 0 595.3 841.9;" xml:space="preserve">
<style type="text/css">
	.st0{fill:#D87E33;}
	.st1{fill:#FFFFFF;}
</style>
<g>
	<g>
		<g>
			<g>
				<g>
					<g>
						<g>
							<g>
								<circle class="st0" cx="298.6" cy="418.8" r="296.7"/>
							</g>
						</g>
					</g>
				</g>
			</g>
		</g>
	</g>
	<g>
		<g>
			<path class="st1" d="M390.1,544.8H171.5c-42.1,0-76.4-34.3-76.4-76.4V360.6c0-42.1,34.3-76.4,76.4-76.4h199.3c6.6,0,12,5.4,12,12
				s-5.4,12-12,12H171.5c-28.9,0-52.4,23.5-52.4,52.4v107.9c0,28.9,23.5,52.4,52.4,52.4h218.6c28.9,0,52.4-23.5,52.4-52.4
				c0,0-0.1-130.1-0.1-179.1c0-24.2,6.8-42.8,20.2-55.3c18.1-16.9,41.3-15.6,42.3-15.5l-1.6,23.9l0.1,0c-0.1,0-14.3-0.6-24.6,9.3
				c-8.2,7.8-12.4,20.5-12.4,37.6c0,49,0.1,179.1,0.1,179.1C466.4,510.6,432.2,544.8,390.1,544.8z"/>
		</g>
		<g>
			<path class="st1" d="M371,386.9H190.9c-6.6,0-12-5.4-12-12s5.4-12,12-12H371c6.6,0,12,5.4,12,12S377.7,386.9,371,386.9z"/>
		</g>
		<g>
			<path class="st1" d="M371,465.6H190.9c-6.6,0-12-5.4-12-12s5.4-12,12-12H371c6.6,0,12,5.4,12,12S377.7,465.6,371,465.6z"/>
		</g>
		<g>
			<circle class="st1" cx="454" cy="587" r="24.9"/>
		</g>
		<g>
			<circle class="st1" cx="113.1" cy="587" r="24.9"/>
		</g>
	</g>
</g>
</svg>
