<?xml version="1.0" encoding="utf-8"?>
<!-- Generator: Adobe Illustrator 19.2.1, SVG Export Plug-In . SVG Version: 6.00 Build 0)  -->
<svg version="1.1" id="图层_1" xmlns="http://www.w3.org/2000/svg" xmlns:xlink="http://www.w3.org/1999/xlink" x="0px" y="0px"
	 viewBox="0 0 595.3 841.9" style="enable-background:new 0 0 595.3 841.9;" xml:space="preserve">
<style type="text/css">
	.st0{fill:#D87E33;}
	.st1{fill:#FFFFFF;}
</style>
<g>
	<g>
		<g>
			<g>
				<g>
					<g>
						<g>
							<g>
								<g>
									<g>
										<circle class="st0" cx="298.6" cy="432.6" r="296.7"/>
									</g>
								</g>
							</g>
						</g>
					</g>
				</g>
			</g>
		</g>
		<g>
			<g>
				<g>
					<path class="st1" d="M207.1,558.7h218.6c42.1,0,76.4-34.3,76.4-76.4V374.4c0-42.1-34.3-76.4-76.4-76.4H226.4
						c-6.6,0-12,5.4-12,12s5.4,12,12,12h199.3c28.9,0,52.4,23.5,52.4,52.4v107.9c0,28.9-23.5,52.4-52.4,52.4H207.1
						c-28.9,0-52.4-23.5-52.4-52.4c0,0,0.1-130.1,0.1-179.1c0-24.2-6.8-42.8-20.2-55.3c-18.1-16.9-41.3-15.6-42.3-15.5l1.6,23.9
						h-0.1c0.1,0,14.3-0.6,24.6,9.3c8.2,7.8,12.4,20.5,12.4,37.6c0,49-0.1,179.1-0.1,179.1C130.8,524.4,165,558.7,207.1,558.7z"/>
				</g>
			</g>
			<g>
				<g>
					<path class="st1" d="M226.2,400.7h180.1c6.6,0,12-5.4,12-12s-5.4-12-12-12H226.2c-6.6,0-12,5.4-12,12S219.5,400.7,226.2,400.7z
						"/>
				</g>
			</g>
			<g>
				<g>
					<path class="st1" d="M226.2,479.4h180.1c6.6,0,12-5.4,12-12s-5.4-12-12-12H226.2c-6.6,0-12,5.4-12,12S219.5,479.4,226.2,479.4z
						"/>
				</g>
			</g>
			<g>
				<g>
					<circle class="st1" cx="143.2" cy="600.9" r="24.9"/>
				</g>
			</g>
			<g>
				<g>
					<circle class="st1" cx="484.1" cy="600.9" r="24.9"/>
				</g>
			</g>
		</g>
	</g>
	<g>
		<circle class="st1" cx="463.5" cy="183.3" r="92.7"/>
		<path class="st0" d="M463.5,279.9c-53.3,0-96.7-43.4-96.7-96.7s43.4-96.7,96.7-96.7s96.7,43.4,96.7,96.7S516.8,279.9,463.5,279.9z
			 M463.5,94.6c-48.9,0-88.7,39.8-88.7,88.7s39.8,88.7,88.7,88.7s88.7-39.8,88.7-88.7S512.3,94.6,463.5,94.6z"/>
	</g>
</g>
</svg>
