<?xml version="1.0" encoding="utf-8"?>
<!-- Generator: Adobe Illustrator 19.2.1, SVG Export Plug-In . SVG Version: 6.00 Build 0)  -->
<svg version="1.1" id="图层_1" xmlns="http://www.w3.org/2000/svg" xmlns:xlink="http://www.w3.org/1999/xlink" x="0px" y="0px"
	 viewBox="0 0 595.3 841.9" style="enable-background:new 0 0 595.3 841.9;" xml:space="preserve">
<style type="text/css">
	.st0{fill:#FFFFFF;}
</style>
<g>
	<path class="st0" d="M299,689.6L299,689.6c-3.3,0-6.5-1.3-8.8-3.7L85.7,478.4C39.5,432.1,14,377.1,14,323.4
		c0-86.7,57.6-144.9,143.3-144.9c73.7,0,102.9,32.7,141.7,78.4c38.9-45.7,68-78.4,141.7-78.4c85.7,0,143.3,58.2,143.3,144.9
		c0,53.7-25.5,108.7-71.8,155L307.7,685.9C305.4,688.3,302.3,689.6,299,689.6z M157.3,203.2c-72.1,0-118.7,47.2-118.7,120.3
		c0,47.1,22.9,96,64.6,137.6L299,659.8l195.8-198.7c41.7-41.7,64.6-90.6,64.6-137.7c0-73.1-46.6-120.3-118.7-120.3
		c-63.7,0-86.8,27.2-125.2,72.3l-7.2,8.5c-2.3,2.7-5.8,4.3-9.3,4.3l0,0c-3.6,0-7-1.6-9.3-4.3l-7.2-8.4
		C244.1,230.4,221,203.2,157.3,203.2z"/>
</g>
</svg>
